<?xml version="1.0" encoding="UTF-8"?>
<svg width="15px" height="15px" viewBox="0 0 15 15" version="1.1" xmlns="http://www.w3.org/2000/svg" xmlns:xlink="http://www.w3.org/1999/xlink">
    <!-- Generator: Sketch 52.1 (67048) - http://www.bohemiancoding.com/sketch -->
    <title>004-facebook</title>
    <desc>Created with Sketch.</desc>
    <g id="Page-1" stroke="none" stroke-width="1" fill="none" fill-rule="evenodd">
        <g id="-Sign-up" transform="translate(-172.000000, -1230.000000)" fill="#757575" fill-rule="nonzero">
            <g id="Bottom-Area" transform="translate(135.000000, 1194.000000)">
                <g id="Social" transform="translate(0.000000, 30.000000)">
                    <g id="004-facebook" transform="translate(37.000000, 6.000000)">
                        <path d="M13.7365244,0 L1.24884146,0 C0.562134146,0 0,0.562134146 0,1.24884146 L0,13.7367073 C0,14.4230488 0.562134146,14.9853659 1.24884146,14.9853659 L13.7365244,14.9853659 C14.4232317,14.9853659 14.9853659,14.4230488 14.9853659,13.7367073 L14.9853659,1.24884146 C14.9853659,0.562134146 14.4232317,0 13.7365244,0 Z M13.7365244,13.7367073 L8.74152439,13.7367073 L8.74152439,8.74134146 L11.8633537,8.74134146 L11.8633537,7.49268293 L8.74152439,7.49268293 L8.74152439,6.24384146 C8.74152439,5.20909756 9.5805,4.37067073 10.6146951,4.37067073 L11.8633537,4.37067073 L11.8633537,3.12182927 L10.6146951,3.12182927 C8.89082927,3.1220122 7.49268293,4.51920732 7.49268293,6.24384146 L7.49268293,7.49268293 L6.24384146,7.49268293 L6.24384146,8.74134146 L7.49268293,8.74134146 L7.49268293,13.7367073 L1.24884146,13.7367073 L1.24884146,1.24884146 L13.7365244,1.24884146 L13.7365244,13.7367073 Z" id="Shape"></path>
                    </g>
                </g>
            </g>
        </g>
    </g>
</svg>