<?xml version="1.0" encoding="UTF-8"?>
<svg width="42px" height="45px" viewBox="0 0 42 45" version="1.1" xmlns="http://www.w3.org/2000/svg" xmlns:xlink="http://www.w3.org/1999/xlink">
    <!-- Generator: Sketch 52.1 (67048) - http://www.bohemiancoding.com/sketch -->
    <title>Logo</title>
    <desc>Created with Sketch.</desc>
    <g id="Page-1" stroke="none" stroke-width="1" fill="none" fill-rule="evenodd">
        <g id="-Sign-up" transform="translate(-1271.000000, -39.000000)" fill="#006CFC" fill-rule="nonzero" stroke="#006CFC" stroke-width="1.5">
            <g id="Header" transform="translate(588.000000, 40.000000)">
                <g id="logo" transform="translate(619.000000, 0.000000)">
                    <g id="Logo" transform="translate(65.000000, 0.000000)">
                        <g id="POD2">
                            <path d="M6.10178117,37.4534351 C5.95900221,37.4534351 5.843257,37.3376899 5.843257,37.1949109 L5.843257,23.6753181 C5.84368762,23.4095018 5.9866654,23.1643415 6.2178117,23.0330789 L23.9440204,12.9913486 C24.1722333,12.8615202 24.452287,12.8629259 24.6791852,12.9950385 C24.9060834,13.1271511 25.0455484,13.3700124 25.0452926,13.63257 L25.0452926,17.7974555 C25.0452926,17.9402344 24.9295474,18.0559796 24.7867684,18.0559796 C24.6439895,18.0559796 24.5282443,17.9402344 24.5282443,17.7974555 L24.5282443,13.63257 C24.528322,13.5539376 24.4865878,13.4811936 24.4186668,13.441573 C24.3507458,13.4019525 24.2668819,13.4014309 24.1984733,13.4402036 L6.47226463,23.4819338 C6.40260356,23.5214228 6.35947696,23.5952431 6.35928753,23.6753181 L6.35928753,37.1949109 C6.35928864,37.3372934 6.24416249,37.4528746 6.10178117,37.4534351 Z" id="Shape"></path>
                            <path d="M10.173028,39.9979644 C10.030249,39.9979644 9.91450382,39.8822192 9.91450382,39.7394402 L9.91450382,26.3216285 C9.91493444,26.0558122 10.0579122,25.8106519 10.2890585,25.6793893 L28.0152672,15.637659 C28.2434801,15.5078307 28.5235339,15.5092363 28.7504321,15.6413489 C28.9773303,15.7734615 29.1167952,16.0163229 29.1165394,16.2788804 L29.1165394,20.0366412 C29.1165394,20.1794202 29.0007942,20.2951654 28.8580153,20.2951654 C28.7152363,20.2951654 28.5994911,20.1794202 28.5994911,20.0366412 L28.5994911,16.2788804 C28.5995688,16.200248 28.5578346,16.1275041 28.4899136,16.0878835 C28.4219926,16.0482629 28.3381287,16.0477413 28.2697201,16.086514 L10.5435115,26.1282443 C10.4738504,26.1677332 10.4307238,26.2415535 10.4305344,26.3216285 L10.4305344,39.7394402 C10.4305355,39.8818226 10.3154093,39.9974038 10.173028,39.9979644 Z" id="Shape"></path>
                            <path d="M13.9582697,42.4366412 L11.8208651,41.0381679 L1.12264631,34.8610687 C0.428768303,34.4573116 0.00223626435,33.7147581 0.00305343511,32.9119593 L0.00305343511,12.470229 C0.00147013052,11.9486096 0.181386693,11.4426843 0.511959288,11.0391858 C0.682205468,10.8317814 0.889227162,10.6575382 1.12264631,10.5251908 L18.83257,0.301272265 C19.1989711,0.0904225944 19.6172336,-0.0132613739 20.0396947,0.00203562341 C20.1469834,0.00495041767 20.2538616,0.0165232182 20.3592875,0.0366412214 C20.6098117,0.083638509 20.8506556,0.172406686 21.0717557,0.299236641 L38.7816794,10.5251908 C39.4744533,10.9280649 39.9008478,11.6688284 39.9012723,12.470229 L39.9012723,32.9119593 C39.9012101,33.7137234 39.4747674,34.4549584 38.7816794,34.8580153 L33.6295165,37.9226463 C33.4134726,38.0495752 33.14612,38.0515879 32.9281895,37.927926 C32.7102591,37.8042641 32.5748681,37.5737197 32.573028,37.3231552 L32.573028,18.6198473 C32.5731057,18.541215 32.5313715,18.468471 32.4634505,18.4288504 C32.3955295,18.3892298 32.3116656,18.3887082 32.243257,18.4274809 L14.5129771,28.4692112 C14.443316,28.5087001 14.4001894,28.5825204 14.4,28.6625954 L14.4,42.1821883 C14.3830976,42.3433057 14.2897999,42.4624869 14.1286825,42.4793893 C14.0494319,42.4792106 14.0002638,42.464354 13.9582697,42.4366412 Z M13.8839695,41.7669211 L13.8839695,28.6625954 C13.8844001,28.3967791 14.0273779,28.1516188 14.2585242,28.0203562 L31.9847328,17.978626 C32.2129457,17.8487976 32.4929995,17.8502032 32.7198977,17.9823158 C32.9467959,18.1144285 33.0862609,18.3572898 33.0860051,18.6198473 L33.0860051,37.3231552 C33.0857405,37.3896306 33.1213096,37.4510929 33.1790787,37.4839833 C33.2368478,37.5168737 33.3078559,37.5160905 33.3648855,37.4819338 L38.5201018,34.4152672 C39.0596966,34.1071389 39.3926359,33.5333332 39.3923664,32.9119593 L39.3923664,12.470229 C39.3921247,11.8527214 39.0628117,11.282145 38.5282443,10.973028 L20.8173028,0.749109415 C20.6463791,0.650278015 20.4598008,0.581429947 20.2656489,0.545547074 C20.1843626,0.530143396 20.1020208,0.520956493 20.0193384,0.518066158 C19.6929496,0.505158341 19.3696148,0.585286088 19.0870229,0.749109415 L1.37709924,10.9720102 C1.19815944,11.0738529 1.03945923,11.2077131 0.908905852,11.3669211 C0.652663568,11.6775391 0.512342883,12.0675586 0.511959288,12.470229 L0.511959288,32.9119593 C0.512047708,33.5300403 0.841825348,34.1011376 1.37709924,34.4101781 L12.0844784,40.594402 L13.8839695,41.7669211 Z" id="Shape"></path>
                        </g>
                    </g>
                </g>
            </g>
        </g>
    </g>
</svg>