<?xml version="1.0" encoding="UTF-8"?>
<svg width="15px" height="15px" viewBox="0 0 15 15" version="1.1" xmlns="http://www.w3.org/2000/svg" xmlns:xlink="http://www.w3.org/1999/xlink">
    <!-- Generator: Sketch 52.1 (67048) - http://www.bohemiancoding.com/sketch -->
    <title>001-twitter</title>
    <desc>Created with Sketch.</desc>
    <g id="Page-1" stroke="none" stroke-width="1" fill="none" fill-rule="evenodd">
        <g id="-Sign-up" transform="translate(-135.000000, -1230.000000)" fill="#757575" fill-rule="nonzero">
            <g id="Bottom-Area" transform="translate(135.000000, 1194.000000)">
                <g id="Social" transform="translate(0.000000, 30.000000)">
                    <g id="001-twitter" transform="translate(0.000000, 6.000000)">
                        <path d="M13.7365244,0 L1.24884146,0 C0.562134146,0 0,0.562134146 0,1.24884146 L0,13.7367073 C0,14.4232317 0.562134146,14.9853659 1.24884146,14.9853659 L13.7365244,14.9853659 C14.4232317,14.9853659 14.9853659,14.4232317 14.9853659,13.7365244 L14.9853659,1.24884146 C14.9853659,0.562134146 14.4232317,0 13.7365244,0 Z M13.7365244,13.7365244 L1.24884146,13.7365244 L1.24884146,1.24884146 L13.7365244,1.24884146 L13.7365244,13.7365244 Z" id="Shape"></path>
                        <path d="M10.3567683,10.8542561 C10.1080244,11.1024512 9.77871951,11.2389878 9.42859756,11.2389878 C8.70556098,11.2389878 8.1170122,10.650439 8.1170122,9.92740244 L8.1170122,6.24384146 L10.6146951,6.24384146 L10.6146951,4.995 L8.1170122,4.995 L8.1170122,2.4975 L6.86835366,2.4975 L6.86835366,4.995 L4.99518293,4.995 L4.99518293,6.24384146 L6.86835366,6.24384146 L6.86835366,9.92743902 C6.86835366,11.3409146 8.01453659,12.4878659 9.42859756,12.4878659 C10.1359024,12.4878659 10.7755976,12.2007073 11.2390244,11.7378659 L10.3567683,10.8542561 Z" id="Shape"></path>
                    </g>
                </g>
            </g>
        </g>
    </g>
</svg>